<svg width="2048" height="2048" viewBox="0 0 2048 2048" fill="none" xmlns="http://www.w3.org/2000/svg">
<rect width="2048" height="2048" fill="#57051F"/>
<path fill-rule="evenodd" clip-rule="evenodd" d="M2039.44 894.203C2042.26 890.072 2044.98 885.891 2048 881.356C2045.95 880.577 2044.59 880.02 2043.19 879.542C1989.65 861.111 1935.23 845.753 1879.87 833.69C1835.17 823.95 1790.15 816.078 1744.67 811.094C1713.66 807.695 1682.56 804.741 1651.41 803.012C1616.24 801.058 1580.98 800.16 1545.75 799.826C1519.92 799.579 1494.05 800.453 1468.25 801.78C1433.51 803.567 1398.73 805.406 1364.12 808.796C1319.86 813.131 1275.63 818.2 1231.61 824.476C1181.83 831.572 1132.25 840.115 1082.67 848.497C1053.12 853.49 1023.79 859.737 994.251 864.774C961.005 870.443 927.64 875.424 894.313 880.616C885.952 881.92 877.538 882.889 869.026 884.028C868.52 882.337 868.09 881.234 867.861 880.091L866.665 874.152C862.794 854.929 858.923 835.707 855.105 816.474C848.806 784.736 842.52 752.995 836.346 721.233C835.773 718.286 834.513 717.78 831.769 718.062C790.479 722.283 749.233 727.074 707.868 730.386C655.989 734.541 603.96 734.935 551.963 732.813C524.063 731.672 496.205 729.465 468.339 727.566C465.067 727.345 464.037 728.279 463.352 731.411C451.729 784.558 439.981 837.678 428.223 890.794C426.472 898.703 426.378 898.733 418.369 897.99C369.544 893.456 321.055 886.565 272.946 877.085C212.95 865.262 153.936 849.717 95.9762 830.206C90.4136 828.334 84.8223 826.545 78.4523 824.457C80.248 834.528 81.8412 843.751 83.5412 852.954C96.6685 924.015 109.848 995.065 122.826 1066.15C123.267 1068.56 122.465 1071.82 121.048 1073.86C82.6386 1129.01 44.0684 1184.05 5.54832 1239.13C3.68604 1241.8 2.04068 1244.61 0 1247.81C1.67768 1248.68 2.53919 1249.27 3.49272 1249.59C17.6599 1254.3 31.7694 1259.2 46.0282 1263.62C95.4086 1278.92 145.391 1291.9 196.147 1301.81C237.509 1309.88 279.084 1316.66 321.055 1320.59C350.788 1323.38 380.554 1326.1 410.367 1327.67C440.638 1329.27 470.982 1329.94 501.295 1330.04C527.875 1330.13 554.481 1329.32 581.034 1328.07C612.053 1326.6 643.081 1324.82 674.009 1322.08C708.653 1319 743.231 1315.05 777.757 1310.82C807.086 1307.22 836.4 1303.3 865.538 1298.43C916.739 1289.87 967.782 1280.37 1018.93 1271.46C1055.67 1265.07 1119.12 1254.47 1129.25 1252.77C1544.69 1200.98 1594.66 1208.91 1838.3 1266.7C1878.39 1276.95 1914.64 1288.5 1952.76 1299.57C1958.16 1301.14 1963.42 1303.11 1969.06 1305C1969.06 1303.71 1969.18 1302.83 1969.04 1302C1965.99 1284.19 1962.91 1266.39 1959.83 1248.59L1959.69 1247.81C1949.09 1186.58 1938.49 1125.35 1927.8 1064.13C1927.17 1060.58 1928.08 1057.86 1930.05 1054.98C1965.75 1002.61 2001.38 950.186 2037.02 897.767L2039.44 894.203Z" fill="#E1124E"/>
<path d="M371.64 964.64C359.531 963.453 347.475 961.732 335.391 960.293C330.569 959.719 329.613 960.611 329.524 965.423C329.271 979.282 328.981 993.139 328.811 1007C328.471 1034.74 328.049 1062.48 327.941 1090.22C327.791 1128.1 327.904 1165.99 327.904 1203.88C327.54 1203.88 327.175 1203.88 326.812 1203.88C326.812 1213.73 327.027 1223.59 326.711 1233.43C326.577 1237.64 328.098 1239.47 332.081 1239.95C344.609 1241.47 357.117 1243.15 369.651 1244.62C372.224 1244.92 373.823 1243.5 373.914 1240.65C374.081 1235.45 374.487 1230.25 374.559 1225.05C374.905 1199.4 375.201 1173.76 375.469 1148.11C375.795 1116.64 376.102 1085.17 376.363 1053.7C376.505 1036.53 376.471 1019.37 376.632 1002.21C376.729 991.778 377.047 981.352 377.265 970.926C377.346 967.081 375.972 965.065 371.64 964.64Z" fill="#F4F4F4"/>
<path d="M565.939 1010.58C561.769 1010.64 557.601 1011 553.43 1011.04C546.021 1011.12 538.609 1011.07 531.518 1011.07C531.518 1000.92 531.522 990.973 531.517 981.027C531.512 972.847 530.812 972.177 522.595 972.14C505.71 972.065 488.812 972.369 471.946 971.766C452.311 971.061 432.708 969.491 413.085 968.434C407.401 968.127 406.736 969.02 406.669 974.794C406.43 995.529 406.156 1016.26 405.929 1037C405.612 1065.94 405.305 1094.89 405.035 1123.83C404.922 1135.78 404.963 1147.72 404.848 1159.67C404.587 1187.12 404.32 1214.58 403.929 1242.03C403.871 1246.11 405.35 1248.15 409.487 1248.36C420.942 1248.92 432.39 1249.68 443.849 1250.15C451.358 1250.46 451.778 1249.83 451.859 1242.08C452.082 1221.05 452.364 1200.02 452.594 1178.98C452.908 1150.49 453.247 1121.99 453.479 1093.5C453.632 1074.83 453.621 1056.17 453.672 1037.5C453.691 1030.83 453.675 1024.17 453.675 1017.31C476.799 1017.91 499.265 1018.48 522.171 1019.07C522.249 1020.54 522.359 1021.57 522.348 1022.59C522.111 1042.88 521.831 1063.16 521.625 1083.44C521.509 1094.79 521.575 1106.14 521.446 1117.49C521.258 1134.04 520.863 1150.59 520.746 1167.14C520.555 1194.17 520.523 1221.2 520.405 1248.22C520.394 1250.78 521.404 1252.14 524.124 1252.04C526.363 1251.96 528.606 1252.04 530.848 1252.03C540.859 1252 550.873 1252.04 560.882 1251.9C566.845 1251.82 567.527 1250.94 567.647 1245.19C567.782 1238.65 568.183 1232.1 568.264 1225.56C568.611 1197.51 568.92 1169.45 569.168 1141.41C569.306 1125.73 569.303 1110.05 569.359 1094.37C569.395 1083.92 569.346 1073.47 569.473 1063.01C569.668 1047.06 569.995 1031.1 570.236 1015.15C570.279 1012.31 568.889 1010.54 565.939 1010.58Z" fill="#F4F4F4"/>
<path d="M759.252 996.258C755.847 996.566 752.462 997.087 749.065 997.465C741.398 998.315 733.729 999.135 725.458 1000.03C725.458 988.309 725.385 977.43 725.501 966.553C725.538 963.111 724.37 961.595 720.773 961.993C714.268 962.713 707.747 963.307 701.224 963.842C682.681 965.365 664.135 966.827 645.592 968.321C639.709 968.795 639.106 969.435 639.093 975.402C639.069 985.83 639.087 996.257 639.087 1006.99C636.175 1007.3 633.84 1007.68 631.493 1007.79C622.854 1008.21 614.212 1008.55 605.57 1008.89C602.052 1009.02 600.139 1010.3 600.209 1014.3C600.306 1019.95 599.712 1025.6 599.652 1031.25C599.305 1063.64 598.988 1096.02 598.745 1128.41C598.586 1149.62 598.605 1170.82 598.466 1192.03C598.436 1196.64 597.951 1201.25 597.892 1205.86C597.849 1209.16 599.251 1211.14 603.059 1210.85C608.703 1210.41 614.363 1210.14 620.023 1210C625.606 1209.86 631.196 1209.97 636.254 1209.97C636.254 1220.6 636.194 1231.62 636.283 1242.63C636.318 1247.07 638.197 1248.48 642.416 1248.08C648.786 1247.48 655.173 1247.07 661.552 1246.59C670.312 1245.92 679.084 1245.36 687.831 1244.56C702.343 1243.22 716.844 1241.76 731.346 1240.3C740.075 1239.42 748.823 1238.63 757.5 1237.37C758.934 1237.16 760.913 1234.89 761.145 1233.34C761.831 1228.81 761.909 1224.16 761.967 1219.55C762.313 1191.64 762.636 1163.74 762.869 1135.83C763.02 1117.61 763.017 1099.39 763.058 1081.17C763.071 1075.54 761.572 1074.6 756.006 1075.28C743.172 1076.86 730.307 1078.18 717.443 1079.5C705.462 1080.73 693.478 1081.95 681.475 1082.93C677.758 1083.23 676.585 1085 676.59 1088.37C676.606 1100.32 676.609 1112.27 676.488 1124.21C676.452 1127.98 678.339 1129.39 681.752 1129.11C686.196 1128.75 690.619 1128.13 695.06 1127.74C701.659 1127.16 708.267 1126.69 714.33 1126.21C714.33 1149.77 714.33 1172.81 714.33 1195.94C691.056 1197.89 668.573 1199.77 645.734 1201.68C646.391 1138.91 647.04 1076.89 647.696 1014.35C670.402 1012.46 693.021 1010.58 715.885 1008.68C715.963 1009.75 716.103 1010.76 716.101 1011.77C716.093 1021.77 716.12 1031.78 716.003 1041.79C715.96 1045.44 717.533 1047.07 721.144 1046.72C723.808 1046.46 726.468 1046.15 729.127 1045.85C739.165 1044.7 749.189 1043.42 759.244 1042.47C762.605 1042.15 763.696 1040.31 763.728 1037.54C763.871 1025.15 763.922 1012.75 763.914 1000.36C763.913 997.427 762.142 995.997 759.252 996.258Z" fill="#F4F4F4"/>
<path d="M295.219 953.907C286.735 952.553 278.291 950.89 269.889 949.079C253.095 945.459 236.344 941.634 219.564 937.939C215.019 936.938 213.88 937.87 213.776 942.388C213.509 954.009 213.318 965.635 212.947 977.253C212.822 981.163 214.246 983.236 218.23 984.078C227.935 986.129 237.531 988.718 247.26 990.645C250.853 991.356 251.663 992.787 251.609 996.237C251.209 1021.3 251.046 1046.36 250.773 1071.42C250.447 1101.4 250.078 1131.39 249.752 1161.37C249.69 1167.16 249.744 1172.94 249.744 1178.74C248.837 1178.74 248.375 1178.83 247.965 1178.73C224.852 1172.88 201.742 1167.01 178.635 1161.14C174.547 1160.1 172.741 1161.11 172.628 1165.01C172.284 1176.93 172.095 1188.86 171.875 1200.78C171.81 1204.36 173.321 1206.39 177.107 1207.28C214.702 1216.12 252.253 1225.15 289.842 1234.02C296.072 1235.49 296.701 1234.73 296.804 1228.31C297.017 1215.05 297.393 1201.8 297.558 1188.54C297.877 1163.04 298.084 1137.53 298.357 1112.03C298.64 1085.62 299.024 1059.22 299.225 1032.82C299.409 1008.34 299.382 983.852 299.517 959.367C299.535 956.251 298.766 954.474 295.219 953.907Z" fill="#F4F4F4"/>
<path d="M605.433 875.368C609.012 875.494 612.6 875.421 616.185 875.383C619.71 875.345 621.702 873.998 621.494 869.99C621.236 865.078 621.433 860.142 621.433 855.218C621.435 846.601 621.433 837.985 621.433 828.722C634.931 828.722 647.954 828.722 661.505 828.722C661.505 830.168 661.505 831.768 661.505 833.368C661.506 844.861 661.463 856.353 661.53 867.843C661.559 872.931 663.398 874.762 667.708 874.441C671.115 874.188 674.528 873.796 677.936 873.817C682.077 873.841 683.956 871.903 683.958 867.905C683.962 838.653 683.999 809.401 683.926 780.148C683.913 775.199 682.129 773.987 677.231 774.56C674.868 774.835 672.464 774.782 670.079 774.802C662.127 774.872 661.514 775.478 661.506 783.531C661.5 790.934 661.506 798.338 661.506 806.037C647.898 806.037 634.969 806.037 621.432 806.037C621.432 797.538 621.277 789.492 621.494 781.459C621.612 777.104 619.729 775.529 615.62 775.71C612.49 775.847 609.349 775.717 606.213 775.742C600.577 775.787 599.495 776.864 599.488 782.604C599.471 801.26 599.482 819.916 599.482 838.572C599.482 848.719 599.452 858.869 599.494 869.018C599.517 873.911 600.707 875.201 605.433 875.368Z" fill="#F4F4F4"/>
<path d="M728.405 792.256C743.584 790.417 758.763 788.584 773.939 786.734C776.999 786.361 778.893 784.704 778.968 781.529C779.066 777.352 779.151 773.163 778.931 768.995C778.755 765.672 777.162 764.224 773.365 764.675C748.729 767.593 724.069 770.3 699.407 772.989C696.338 773.323 695.343 774.918 695.345 777.714C695.362 807.868 695.375 838.024 695.327 868.179C695.323 871.107 696.588 872.237 699.391 872.054C705.484 871.654 711.609 871.554 717.669 870.875C734.638 868.971 751.573 866.76 768.537 864.817C778.686 863.653 779.03 863.41 779.031 853.11C779.031 851.765 779.038 850.422 779.028 849.079C778.984 842.316 778.047 841.282 771.56 842.098C758.9 843.693 746.278 845.589 733.618 847.187C728.37 847.851 723.065 848.069 717.522 848.509C717.522 840.163 717.522 832.46 717.522 824.263C722.463 823.733 727.313 823.281 732.146 822.683C741.28 821.552 750.433 820.516 759.502 818.988C761.103 818.719 763.343 816.388 763.545 814.789C764.101 810.382 763.889 805.85 763.674 801.384C763.525 798.287 761.4 796.958 758.442 797.321C750.338 798.317 742.26 799.527 734.151 800.466C728.636 801.104 723.086 801.428 717.413 801.906C717.413 798.648 717.413 796.273 717.413 793.594C721.364 793.112 724.885 792.683 728.405 792.256Z" fill="#F4F4F4"/>
<path d="M581.854 774.975C575.453 774.685 569.042 774.507 562.658 773.998C545.164 772.606 527.68 771.076 510.195 769.577C506.496 769.261 504.499 770.843 504.445 774.595C504.389 778.476 504.467 782.36 504.413 786.241C504.37 789.397 505.533 791.225 508.972 791.564C517.507 792.404 526.021 793.458 534.913 794.468C534.913 802.016 534.913 809.452 534.913 816.889C534.913 833.165 534.932 849.44 534.897 865.714C534.89 868.817 535.431 871.502 539.13 871.895C543.273 872.336 547.439 872.549 551.594 872.886C555.419 873.198 556.961 871.51 556.912 867.644C556.775 856.746 556.866 845.846 556.866 834.945C556.866 822.123 556.866 809.3 556.866 795.956C564.986 796.376 572.575 796.491 580.1 797.243C586.479 797.88 588.176 796.728 588.192 790.239C588.198 787.401 588.203 784.564 588.19 781.727C588.163 776.113 587.291 775.22 581.854 774.975Z" fill="#F4F4F4"/>
<path d="M948.036 1165.02C933.243 1167.41 918.422 1169.61 903.603 1171.82C887.897 1174.16 872.183 1176.46 856.464 1178.72C850.935 1179.51 845.379 1180.12 839.154 1180.9C839.463 1176.05 839.929 1171.79 839.979 1167.52C840.335 1135.89 840.588 1104.26 840.914 1072.63C841.233 1041.9 841.621 1011.16 841.933 980.427C842.027 971.321 841.942 962.211 841.995 953.102C842.014 949.993 841.088 947.475 837.522 947.905C825.436 949.364 813.374 951.018 801.319 952.706C794.521 953.657 794.207 953.747 794.099 961.754C793.806 983.083 793.572 1004.41 793.337 1025.75C793.027 1053.94 792.686 1082.14 792.454 1110.34C792.303 1128.85 792.326 1147.37 792.255 1165.88C792.226 1173.65 792.206 1181.41 792.094 1189.17C791.905 1202.29 791.539 1215.4 791.488 1228.52C791.474 1231.95 793.572 1233.48 797.228 1232.72C800.418 1232.06 803.691 1231.79 806.93 1231.37C821.507 1229.48 836.098 1227.69 850.658 1225.68C866.524 1223.49 882.372 1221.16 898.213 1218.79C915.381 1216.22 932.514 1213.4 949.705 1210.98C954.022 1210.37 955.045 1208.29 955.002 1204.4C954.881 1193.21 955.025 1182.01 955.031 1170.81C955.036 1165.1 953.575 1164.13 948.036 1165.02Z" fill="#F4F4F4"/>
<path fill-rule="evenodd" clip-rule="evenodd" d="M1608.92 906.606C1609.97 906.621 1611.01 906.635 1612.05 906.705C1615.4 906.931 1616.97 908.443 1616.92 912.127C1616.81 923.472 1616.78 934.818 1616.75 946.164C1616.72 956.175 1616.69 966.186 1616.61 976.196C1616.49 988.964 1616.32 1001.73 1616.15 1014.5C1616 1025.3 1615.86 1036.11 1615.75 1046.91C1615.56 1064.82 1615.39 1082.73 1615.22 1100.63C1615.09 1114.07 1614.96 1127.5 1614.82 1140.94C1614.76 1147.08 1613.55 1148.15 1607.3 1147.85C1604.2 1147.71 1601.11 1147.56 1598.01 1147.41C1589.36 1146.99 1580.7 1146.57 1572.03 1146.28C1568.36 1146.16 1567.02 1144.66 1567.05 1141.1C1567.11 1132.28 1567.13 1123.47 1567.16 1114.65C1567.18 1104.8 1567.2 1094.94 1567.29 1085.09C1567.43 1068.09 1567.69 1051.09 1568.07 1034.09C1568.14 1030.78 1567.19 1029.69 1563.79 1029.72C1543.77 1029.86 1523.74 1029.89 1503.71 1029.69C1499.89 1029.66 1499.32 1031.14 1499.33 1034.43C1499.38 1050.71 1499.29 1066.98 1499.13 1083.26C1499.06 1091.81 1498.94 1100.36 1498.83 1108.91C1498.69 1119.45 1498.55 1130 1498.47 1140.55C1498.45 1144.47 1497.03 1146.17 1492.96 1146.29C1484.26 1146.54 1475.55 1146.93 1466.85 1147.33C1463.35 1147.49 1459.85 1147.65 1456.35 1147.8C1452.51 1147.96 1450.53 1146.19 1450.56 1142.22C1450.87 1107.6 1451.21 1072.97 1451.59 1038.35C1451.78 1020.89 1452 1003.43 1452.23 985.967C1452.31 979.704 1452.39 973.441 1452.47 967.177C1452.54 961.714 1452.62 956.251 1452.69 950.788C1452.87 937.905 1453.05 925.022 1453.15 912.138C1453.18 908.134 1454.81 906.492 1458.81 906.535C1466.47 906.618 1474.13 906.603 1481.95 906.587C1485.08 906.581 1488.25 906.575 1491.44 906.575C1491.53 905.653 1491.62 904.914 1491.69 904.291C1491.81 903.202 1491.89 902.467 1491.91 901.73C1491.97 899.274 1492.04 896.819 1492.1 894.364C1492.31 886.836 1492.52 879.307 1492.51 871.777C1492.51 868.093 1494.05 866.54 1497.42 866.413C1501.01 866.278 1504.59 866.258 1508.18 866.255C1511.65 866.253 1515.12 866.25 1518.59 866.248C1535 866.234 1551.41 866.221 1567.82 866.265C1568.28 866.266 1568.72 866.266 1569.15 866.266C1578.38 866.264 1579.51 866.264 1578.81 879.308C1578.49 885.221 1578.57 891.156 1578.65 897.177C1578.68 899.898 1578.72 902.637 1578.72 905.399C1581.02 905.495 1583.33 905.591 1585.63 905.687C1592.63 905.978 1599.65 906.271 1606.68 906.556C1607.42 906.586 1608.17 906.596 1608.92 906.606ZM1569.03 910.343H1500.9V981.069H1569.03V910.343Z" fill="#F4F4F4"/>
<path d="M1844.89 901.932C1832.64 899.219 1820.46 896.108 1808.23 893.272C1803.52 892.18 1802.05 893.52 1802.05 898.557C1802.02 909.11 1802.04 919.663 1802.04 930.659C1791.26 928.605 1781.72 926.918 1772.22 924.927C1763.96 923.194 1762.59 924.176 1762.59 932.782C1762.57 942.617 1762.59 952.455 1762.59 962.599C1753.77 961.202 1745.37 959.658 1736.91 958.632C1733.71 958.245 1732.43 957.335 1732.56 954.027C1732.94 944.653 1733.17 935.27 1733.31 925.888C1733.42 919.146 1732.08 918.01 1725.45 917.265C1715.33 916.129 1705.24 914.71 1694.78 913.365C1694.78 910.96 1694.78 908.745 1694.78 906.53C1694.8 897.57 1694.77 888.608 1694.85 879.647C1694.86 876.996 1694.34 874.672 1691.33 874.363C1678.63 873.056 1665.92 871.758 1653.17 870.771C1647.83 870.356 1647.02 871.448 1646.95 876.888C1646.65 905.685 1646.38 934.483 1646.04 963.28C1645.77 986.4 1645.39 1009.52 1645.17 1032.64C1644.8 1069.79 1644.52 1106.95 1644.21 1144.11C1644.18 1149.28 1645.6 1150.31 1650.85 1150.76C1662.39 1151.74 1673.91 1152.92 1685.43 1154.21C1690.09 1154.73 1692.06 1153.27 1692.13 1148.44C1692.41 1124.42 1692.75 1100.41 1692.96 1076.39C1693.08 1062.65 1692.92 1048.91 1693.07 1035.17C1693.18 1023.59 1693.56 1012.02 1693.83 999.851C1703.97 1001.17 1713.43 1002.41 1723.13 1003.67C1723.13 1005.74 1723.13 1007.22 1723.13 1008.69C1723.13 1018.25 1723.19 1027.81 1723.09 1037.37C1723.06 1040.48 1723.95 1042.59 1727.28 1043.12C1739.99 1045.18 1752.71 1047.29 1765.42 1049.28C1768.43 1049.75 1770.23 1048.48 1770.31 1045.12C1770.45 1038.28 1770.82 1031.44 1770.98 1024.6C1771.09 1020.45 1771.01 1016.29 1771.01 1012.19C1771.91 1012 1772.36 1011.78 1772.74 1011.85C1781.18 1013.41 1789.61 1014.91 1797.96 1016.74C1798.95 1016.95 1800.21 1019.03 1800.19 1020.23C1800.03 1044.99 1799.62 1069.75 1799.43 1094.51C1799.25 1119 1799.33 1143.5 1799.19 1167.99C1799.17 1171.19 1800.75 1172.46 1803.56 1173.1C1815.96 1175.92 1828.32 1178.82 1840.7 1181.7C1844.76 1182.64 1846.31 1181.59 1846.48 1177.42C1846.78 1169.54 1847.12 1161.65 1847.2 1153.76C1847.56 1120.78 1847.79 1087.8 1848.14 1054.82C1848.37 1032.01 1848.84 1009.19 1849 986.369C1849.17 960.085 1849.12 933.798 1849.22 907.512C1849.23 904.427 1848.3 902.681 1844.89 901.932Z" fill="#F4F4F4"/>
<path d="M1415.31 869.998C1401.69 871.3 1388.04 872.262 1374.4 873.392C1363.58 874.288 1352.75 875.198 1341.93 876.156C1338.91 876.424 1337.55 878.23 1337.5 881.242C1337.29 893.013 1337.02 904.783 1336.8 916.554C1336.72 920.425 1337.99 922.924 1342.56 922.235C1345.06 921.859 1347.6 921.845 1350.12 921.627C1358.4 920.909 1366.67 920.171 1375.35 919.405C1375.35 921.571 1375.36 923.057 1375.34 924.542C1374.99 965.124 1374.67 1005.71 1374.28 1046.29C1374.1 1065.08 1373.76 1083.87 1373.59 1102.65C1373.57 1105.18 1373.25 1106.98 1370.2 1107.23C1359.82 1108.09 1349.45 1109.01 1339.08 1109.98C1326.36 1111.18 1313.63 1112.44 1300.91 1113.69C1297.7 1114 1296.2 1115.74 1296.23 1119.01C1296.29 1124.98 1296.29 1130.96 1296.17 1136.93C1296.05 1142.73 1295.58 1148.53 1295.6 1154.33C1295.61 1159.3 1296.92 1160.26 1301.87 1159.76C1304.98 1159.45 1308.08 1159.09 1311.19 1158.8C1328.07 1157.24 1344.95 1155.74 1361.83 1154.15C1379.96 1152.44 1398.09 1150.6 1416.23 1148.96C1419.93 1148.62 1421.39 1147.1 1421.41 1143.32C1421.57 1117.51 1421.89 1091.7 1422.14 1065.88C1422.41 1037.84 1422.65 1009.8 1422.92 981.751C1423.26 946.99 1423.62 912.227 1423.96 877.466C1424.02 870.588 1422.24 869.336 1415.31 869.998Z" fill="#F4F4F4"/>
<path d="M1143.56 901.429C1136.7 902.664 1129.8 903.685 1122.91 904.739C1106.35 907.274 1089.77 909.731 1073.21 912.294C1056.94 914.813 1040.68 917.407 1024.43 919.999C1013.59 921.727 1002.75 923.439 991.952 925.368C990.728 925.586 989.067 926.993 988.788 928.135C988.126 930.845 987.999 933.725 987.964 936.54C987.62 964.286 987.319 992.031 987.046 1019.78C986.724 1052.45 986.42 1085.12 986.15 1117.8C986.019 1133.62 986.043 1149.45 985.884 1165.27C985.773 1176.45 985.375 1187.62 985.292 1198.8C985.254 1204 986.304 1204.91 991.395 1204.44C995.522 1204.06 999.618 1203.31 1003.72 1202.66C1019.84 1200.12 1035.94 1197.51 1052.06 1194.99C1068.33 1192.44 1084.6 1189.92 1100.88 1187.44C1115.25 1185.26 1129.66 1183.28 1143.99 1180.84C1145.75 1180.54 1148.4 1178.06 1148.48 1176.48C1149.07 1164.13 1149.23 1151.75 1149.31 1139.38C1149.33 1135.9 1147.66 1134.09 1143.58 1134.79C1131.58 1136.82 1119.53 1138.51 1107.51 1140.36C1088.16 1143.35 1068.82 1146.38 1049.47 1149.35C1044.41 1150.13 1039.33 1150.73 1034.11 1151.43C1034.11 1127.82 1034.11 1104.91 1034.11 1081.88C1050.6 1079.36 1066.73 1076.9 1082.85 1074.43C1090.62 1073.24 1098.38 1072.02 1106.15 1070.83C1109.5 1070.32 1111.51 1068.95 1111.16 1064.99C1110.88 1061.76 1111.43 1058.47 1111.48 1055.2C1111.64 1046.25 1111.83 1037.3 1111.78 1028.35C1111.77 1025.64 1110.17 1023.84 1107.12 1024.32C1091.58 1026.72 1076.06 1029.17 1060.53 1031.6C1052.09 1032.92 1043.65 1034.25 1035.34 1035.55C1035.34 1011.78 1035.34 988.398 1035.34 964.405C1050.14 962.158 1064.22 960.058 1078.28 957.876C1100.85 954.375 1123.38 950.674 1145.99 947.41C1150.35 946.78 1151.45 944.942 1151.42 941.037C1151.31 929.989 1151.42 918.939 1151.43 907.891C1151.44 900.969 1150.37 900.204 1143.56 901.429Z" fill="#F4F4F4"/>
</svg>
